<svg width="51" height="52" viewBox="0 0 51 52" fill="none" xmlns="http://www.w3.org/2000/svg">
<path fill-rule="evenodd" clip-rule="evenodd" d="M25.2462 25.9116C25.2387 25.8937 25.231 25.8758 25.2231 25.858L23.2061 21.2952L24.4831 18.4065C24.7995 17.6908 25.4753 17.2729 26.1782 17.2803C26.8811 17.2729 27.557 17.6908 27.8734 18.4065L29.558 22.2173L31.2592 18.3691C31.6907 17.3931 32.7908 16.9709 33.7165 17.4262C34.6421 17.8815 35.0427 19.0418 34.6112 20.0179L31.2743 27.5661C31.0951 27.9716 30.8004 28.2815 30.4509 28.4726C30.4071 28.4989 30.3619 28.5235 30.3155 28.5464C29.3898 29.0017 28.2897 28.5795 27.8581 27.6034L26.1782 23.8033L25.2462 25.9116Z" fill="#C4A27F"/>
<path fill-rule="evenodd" clip-rule="evenodd" d="M20.9596 18.4065C20.5281 17.4304 19.428 17.0082 18.5024 17.4636C17.5768 17.9189 17.1762 19.0793 17.6076 20.0554L20.9442 27.6037C21.3756 28.5798 22.4757 29.002 23.4014 28.5467C24.327 28.0914 24.7276 26.9309 24.2961 25.9548L20.9596 18.4065Z" fill="#C4A27F"/>
<rect x="12.8723" y="12.6211" width="26.4746" height="19.8989" stroke="#C4A27F" stroke-width="2"/>
<line x1="12.8491" y1="12.6211" x2="12.8491" y2="46.4235" stroke="#C4A27F" stroke-width="2"/>
<circle cx="25.598" cy="26.0304" r="24.07" stroke="#C4A27F" stroke-width="2"/>
</svg>
