<svg width="68" height="77" viewBox="0 0 68 77" fill="none" xmlns="http://www.w3.org/2000/svg">
<line x1="0.330566" y1="66.167" x2="67.7696" y2="66.167" stroke="#C4A27F" stroke-width="3"/>
<path d="M66.3672 76.6246V33.9524C66.3672 16.0985 51.8938 1.625 34.0398 1.625V1.625C16.1859 1.625 1.7124 16.0985 1.7124 33.9524V76.6246" stroke="#C4A27F" stroke-width="3"/>
<line x1="0.330566" y1="75.125" x2="67.7696" y2="75.125" stroke="#C4A27F" stroke-width="3"/>
<rect x="11.8613" y="22.2947" width="44.3773" height="43.4825" stroke="#C4A27F" stroke-width="3"/>
<rect x="18.5598" y="29.5896" width="6.5696" height="6.23867" fill="#C4A27F"/>
<rect x="30.8342" y="29.5896" width="6.5696" height="6.23867" fill="#C4A27F"/>
<rect x="43.1089" y="29.5896" width="6.5696" height="6.23867" fill="#C4A27F"/>
<rect x="18.5598" y="40.6329" width="6.5696" height="6.23867" fill="#C4A27F"/>
<rect x="30.8342" y="40.6329" width="6.5696" height="6.23867" fill="#C4A27F"/>
<rect x="43.1089" y="40.6329" width="6.5696" height="6.23867" fill="#C4A27F"/>
<rect x="18.5598" y="51.6763" width="6.5696" height="6.23867" fill="#C4A27F"/>
<rect x="30.8342" y="51.6763" width="6.5696" height="6.23867" fill="#C4A27F"/>
<rect x="43.1089" y="51.6763" width="6.5696" height="6.23867" fill="#C4A27F"/>
</svg>
