<svg width="44" height="50" viewBox="0 0 44 50" fill="none" xmlns="http://www.w3.org/2000/svg">
<rect x="1.5022" y="1.36914" width="41.3193" height="47.222" stroke="#C4A27F" stroke-width="2"/>
<circle cx="22.1619" cy="24.9802" r="19.2463" stroke="#C4A27F" stroke-width="2"/>
<circle cx="22.1619" cy="24.9802" r="11.9705" stroke="#C4A27F" stroke-width="2"/>
<path d="M14.9058 21.8162H11.2992C11.2375 21.8162 11.176 21.8227 11.1157 21.8357C10.7523 21.9141 10.4789 22.2148 10.4353 22.584L10.2961 23.7614C10.267 24.0073 10.2742 24.2562 10.3174 24.5001L10.7548 26.9662C11.1787 29.3565 12.2876 31.5723 13.9467 33.3444L14.2738 33.6937C15.56 35.0675 17.1844 36.0794 18.9846 36.6281C20.3191 37.0349 21.7201 37.1779 23.1093 37.0491L25.11 36.8637C26.6195 36.7238 28.0744 36.2287 29.3559 35.4188C30.3936 34.763 31.2959 33.9144 32.0142 32.919L33.6493 30.653C34.0224 30.1359 34.2232 29.5144 34.2232 28.8768V28.7431C34.2232 28.6754 34.2285 28.6078 34.2389 28.5408C34.3631 27.7452 33.7478 27.0265 32.9425 27.0265H28.3849C27.3013 27.0265 26.2445 26.6888 25.3617 26.0604L23.0587 24.4213C20.6779 22.7268 17.8281 21.8162 14.9058 21.8162Z" fill="#C4A27F"/>
</svg>
