<svg width="45" height="51" viewBox="0 0 45 51" fill="none" xmlns="http://www.w3.org/2000/svg">
<line x1="1.51599" y1="44.1621" x2="43.439" y2="44.1621" stroke="#C4A27F" stroke-width="2"/>
<path d="M34.0743 9.82886L35.8948 13.0122H32.2537L34.0743 9.82886Z" fill="#C4A27F"/>
<path d="M34.0743 16.1956L32.2538 13.0122L35.8949 13.0122L34.0743 16.1956Z" fill="#C4A27F"/>
<path d="M37.2576 13.0122L34.0743 14.8328L34.0743 11.1917L37.2576 13.0122Z" fill="#C4A27F"/>
<path d="M30.8909 13.0122L34.0743 11.1917L34.0743 14.8327L30.8909 13.0122Z" fill="#C4A27F"/>
<path d="M23.7492 4.75281L25.5697 7.93615H21.9286L23.7492 4.75281Z" fill="#C4A27F"/>
<path d="M23.7492 11.1195L21.9287 7.93616L25.5697 7.93616L23.7492 11.1195Z" fill="#C4A27F"/>
<path d="M26.9325 7.93617L23.7492 9.75671L23.7492 6.11562L26.9325 7.93617Z" fill="#C4A27F"/>
<path d="M20.5658 7.93615L23.7491 6.11561L23.7491 9.75669L20.5658 7.93615Z" fill="#C4A27F"/>
<path d="M12.3375 9.15393L15.6473 14.9413H9.02765L12.3375 9.15393Z" fill="#C4A27F"/>
<path d="M12.3375 20.7288L9.02767 14.9413L15.6473 14.9413L12.3375 20.7288Z" fill="#C4A27F"/>
<path d="M18.1249 14.9413L12.3375 18.2511L12.3375 11.6315L18.1249 14.9413Z" fill="#C4A27F"/>
<path d="M6.55005 14.9412L12.3375 11.6314L12.3375 18.251L6.55005 14.9412Z" fill="#C4A27F"/>
<rect x="1.51599" y="1.10205" width="41.9335" height="47.924" stroke="#C4A27F" stroke-width="2"/>
<circle cx="14.8104" cy="33.9997" r="9.35526" fill="#C4A27F"/>
<circle cx="26.9325" cy="31.5262" r="11.8287" stroke="#C4A27F" stroke-width="2"/>
</svg>
