<svg width="43" height="48" viewBox="0 0 43 48" fill="none" xmlns="http://www.w3.org/2000/svg">
<mask id="mask0_1197_18932" style="mask-type:alpha" maskUnits="userSpaceOnUse" x="4" y="8" width="35" height="27">
<rect x="4.27734" y="8.54688" width="34.4642" height="26.4492" fill="#C4A27F"/>
</mask>
<g mask="url(#mask0_1197_18932)">
<path d="M37.9194 37.1178C37.9194 46.7001 30.3889 54.4679 21.0987 54.4679C11.8085 54.4679 4.27734 46.7004 4.27734 37.1178C4.27734 27.5354 11.8087 19.7677 21.0987 19.7677C30.3887 19.7677 37.9194 27.5352 37.9194 37.1178Z" fill="#C4A27F"/>
</g>
<line x1="1.87274" y1="35.5971" x2="40.3444" y2="35.5971" stroke="#C4A27F" stroke-width="2.00373"/>
<line x1="1.87274" y1="41.2076" x2="40.3444" y2="41.2076" stroke="#C4A27F" stroke-width="2.00373"/>
<line x1="25.9175" y1="15.9606" x2="16.2996" y2="15.9606" stroke="#C4A27F" stroke-width="2.00373"/>
<line x1="21.3089" y1="16.5616" x2="21.3089" y2="22.1721" stroke="#C4A27F" stroke-width="2.00373"/>
<path d="M41.1457 47.8198V21.3705C41.1457 10.3043 32.1746 1.33325 21.1083 1.33325V1.33325C10.0421 1.33325 1.07104 10.3042 1.07104 21.3705V47.8198" stroke="#C4A27F" stroke-width="2.00373"/>
<line x1="1.87274" y1="35.5971" x2="40.3444" y2="35.5971" stroke="#C4A27F" stroke-width="2.00373"/>
<line x1="1.87274" y1="46.8182" x2="40.3444" y2="46.8182" stroke="#C4A27F" stroke-width="2.00373"/>
</svg>
