<svg width="45" height="51" viewBox="0 0 45 51" fill="none" xmlns="http://www.w3.org/2000/svg">
<mask id="mask0_645_11084" style="mask-type:alpha" maskUnits="userSpaceOnUse" x="5" y="9" width="37" height="29">
<rect x="5.10492" y="9.27148" width="36.2598" height="27.8273" fill="#C4A27F"/>
</mask>
<g mask="url(#mask0_645_11084)">
<path d="M40.4997 39.331C40.4997 49.4126 32.5769 57.585 22.8026 57.585C13.0284 57.585 5.10486 49.4128 5.10486 39.331C5.10486 29.2493 13.0286 21.0769 22.8026 21.0769C32.5766 21.0769 40.4997 29.2491 40.4997 39.331Z" fill="#C4A27F"/>
</g>
<line x1="2.5752" y1="37.7311" x2="43.0512" y2="37.7311" stroke="#C4A27F" stroke-width="2.10813"/>
<line x1="2.5752" y1="43.6339" x2="43.0512" y2="43.6339" stroke="#C4A27F" stroke-width="2.10813"/>
<line x1="27.8727" y1="17.0714" x2="17.7537" y2="17.0714" stroke="#C4A27F" stroke-width="2.10813"/>
<line x1="23.024" y1="17.7039" x2="23.024" y2="23.6066" stroke="#C4A27F" stroke-width="2.10813"/>
<path d="M43.8945 50.5907V22.7634C43.8945 11.1205 34.4561 1.68213 22.8132 1.68213V1.68213C11.1703 1.68213 1.73193 11.1205 1.73193 22.7634V50.5907" stroke="#C4A27F" stroke-width="2.10813"/>
<line x1="2.5752" y1="37.7311" x2="43.0512" y2="37.7311" stroke="#C4A27F" stroke-width="2.10813"/>
<line x1="2.5752" y1="49.5368" x2="43.0512" y2="49.5368" stroke="#C4A27F" stroke-width="2.10813"/>
</svg>
