<svg width="72" height="73" viewBox="0 0 72 73" fill="none" xmlns="http://www.w3.org/2000/svg">
<circle cx="36" cy="36.9668" r="28" stroke="#C4A27F" stroke-width="2"/>
<path d="M30.9105 57.4748C27.4645 51.2076 25.8144 44.1112 26.1419 36.9666C25.8154 29.8222 27.4654 22.726 30.9105 16.4585" stroke="#C4A27F" stroke-width="2" stroke-linecap="round" stroke-linejoin="round"/>
<path d="M41.0896 57.4748C44.5356 51.2076 46.1857 44.1112 45.8582 36.9666C46.1847 29.8222 44.5347 22.726 41.0896 16.4585" stroke="#C4A27F" stroke-width="2" stroke-linecap="round" stroke-linejoin="round"/>
<path fill-rule="evenodd" clip-rule="evenodd" d="M36 58.0918C47.667 58.0918 57.125 48.6338 57.125 36.9668C57.125 25.2998 47.667 15.8418 36 15.8418C24.333 15.8418 14.875 25.2998 14.875 36.9668C14.875 48.6338 24.333 58.0918 36 58.0918Z" stroke="#C4A27F" stroke-width="2" stroke-linecap="round" stroke-linejoin="round"/>
<path d="M14.875 36.9668H57.125" stroke="#C4A27F" stroke-width="2" stroke-linecap="round" stroke-linejoin="round"/>
<path d="M17.7085 26.4043H54.2857" stroke="#C4A27F" stroke-width="2" stroke-linecap="round" stroke-linejoin="round"/>
<path d="M17.7085 47.5293H54.2857" stroke="#C4A27F" stroke-width="2" stroke-linecap="round" stroke-linejoin="round"/>
</svg>
