<svg width="72" height="73" viewBox="0 0 72 73" fill="none" xmlns="http://www.w3.org/2000/svg">
<circle cx="36" cy="36.9668" r="28" stroke="#C4A27F" stroke-width="2"/>
<path fill-rule="evenodd" clip-rule="evenodd" d="M34.8397 44.1296C34.8235 44.0908 34.8069 44.0521 34.7898 44.0136L30.4255 34.1411L33.1886 27.8908C33.8731 26.3424 35.3354 25.4382 36.8564 25.4543C38.3772 25.4383 39.8396 26.3424 40.524 27.8908L44.169 36.1363L47.8499 27.8101C48.7835 25.6982 51.1638 24.7847 53.1666 25.7699C55.1694 26.755 56.0362 29.2656 55.1026 31.3775L47.8827 47.7094C47.4949 48.5866 46.8573 49.2572 46.101 49.6706C46.0062 49.7277 45.9086 49.781 45.808 49.8304C43.8052 50.8155 41.4248 49.9021 40.4911 47.7901L36.8563 39.5679L34.8397 44.1296Z" stroke="#C4A27F" stroke-width="1.5"/>
<path fill-rule="evenodd" clip-rule="evenodd" d="M24.1496 27.8913C23.2161 25.7794 20.8358 24.866 18.833 25.8512C16.8303 26.8364 15.9635 29.3472 16.897 31.4591L24.1162 47.7912C25.0497 49.9032 27.4301 50.8166 29.4328 49.8314C31.4355 48.8463 32.3023 46.3354 31.3688 44.2236L24.1496 27.8913Z" fill="#C4A27F"/>
</svg>
