<svg width="72" height="73" viewBox="0 0 72 73" fill="none" xmlns="http://www.w3.org/2000/svg">
<path d="M9 11.6079H63V49.308H30.8651C30.136 49.308 29.4323 49.6161 28.9298 50.12L18.1719 60.9067L18.1719 51.9919C18.1719 50.4953 16.9759 49.2433 15.4925 49.2433H9L9 11.6079Z" stroke="#C4A27F" stroke-width="2"/>
<path d="M25.6377 30.1215C25.6377 32.036 24.0856 33.5881 22.171 33.5881C20.2564 33.5881 18.7043 32.036 18.7043 30.1215C18.7043 28.2069 20.2564 26.6548 22.171 26.6548C24.0856 26.6548 25.6377 28.2069 25.6377 30.1215Z" fill="#C4A27F"/>
<path d="M39.4663 30.1215C39.4663 32.036 37.9142 33.5881 35.9996 33.5881C34.085 33.5881 32.533 32.036 32.533 30.1215C32.533 28.2069 34.085 26.6548 35.9996 26.6548C37.9142 26.6548 39.4663 28.2069 39.4663 30.1215Z" fill="#C4A27F"/>
<path d="M53.2956 30.1215C53.2956 32.036 51.7436 33.5881 49.829 33.5881C47.9144 33.5881 46.3623 32.036 46.3623 30.1215C46.3623 28.2069 47.9144 26.6548 49.829 26.6548C51.7436 26.6548 53.2956 28.2069 53.2956 30.1215Z" fill="#C4A27F"/>
</svg>
