<svg width="72" height="73" viewBox="0 0 72 73" fill="none" xmlns="http://www.w3.org/2000/svg">
<path d="M46.1172 30.5505V26.3575H50.0098V23.3632H46.1172V21.2664H43.1229V23.3632C41.016 23.208 37.7339 24.7187 37.7339 28.454C37.7339 32.1893 40.765 33.5745 43.1229 33.5448V37.7377H39.2308V40.732H43.1229V42.8289H46.1172V40.732C48.3078 40.8537 51.5067 39.3765 51.5067 35.6412C51.5071 31.906 48.3923 30.4128 46.1172 30.5505ZM43.1234 30.5505C42.1092 30.6182 40.7286 30.3082 40.7286 28.4544C40.7286 26.6006 42.4177 26.2245 43.1234 26.3575V30.5505ZM46.1172 37.7385V33.5456C46.954 33.4682 48.512 33.7879 48.512 35.6416C48.5124 37.4958 46.8585 37.8867 46.1172 37.7385Z" fill="#C4A27F"/>
<path d="M59.2758 63.9665V33.2425C59.2758 20.3877 48.8549 9.9668 36.0001 9.9668V9.9668C23.1453 9.9668 12.7244 20.3877 12.7244 33.2425V63.9665" stroke="#C4A27F" stroke-width="2"/>
<line x1="13.6558" y1="62.9668" x2="58.3452" y2="62.9668" stroke="#C4A27F" stroke-width="2"/>
<path d="M20.2566 46.6885H51.5066" stroke="#C4A27F" stroke-width="2"/>
<path d="M20.2566 25.5801H33.3723" stroke="#C4A27F" stroke-width="2"/>
<path d="M20.2566 32.5469H33.3723" stroke="#C4A27F" stroke-width="2"/>
<path d="M20.2566 39.2969H33.3723" stroke="#C4A27F" stroke-width="2"/>
<path d="M20.2566 53.501H51.5066" stroke="#C4A27F" stroke-width="2"/>
</svg>
