<svg width="46" height="51" viewBox="0 0 46 51" fill="none" xmlns="http://www.w3.org/2000/svg">
<line x1="43.3824" y1="7.60282" x2="2.83376" y2="7.60281" stroke="#C4A27F" stroke-width="2.00373"/>
<path d="M1.98897 0.687753L1.98897 28.565C1.98897 40.2287 11.4443 49.6841 23.1081 49.6841V49.6841C34.7718 49.6841 44.2272 40.2287 44.2272 28.565L44.2272 0.687757" stroke="#C4A27F" stroke-width="2.00373"/>
<line x1="43.3823" y1="1.68937" x2="2.83358" y2="1.68936" stroke="#C4A27F" stroke-width="2.00373"/>
<mask id="mask0_1202_31809" style="mask-type:alpha" maskUnits="userSpaceOnUse" x="1" y="0" width="44" height="50">
<path d="M1.98907 21.8068V28.565C1.98907 40.2287 11.4444 49.6841 23.1082 49.6841C34.7719 49.6841 44.2273 40.2287 44.2273 28.565L44.2273 21.8068C44.2273 10.1431 34.7719 0.687747 23.1082 0.687744C11.4444 0.687744 1.98907 10.1431 1.98907 21.8068Z" fill="#C4A27F"/>
</mask>
<g mask="url(#mask0_1202_31809)">
<rect x="7.16449" y="19.7478" width="31.8873" height="31.8873" stroke="#C4A27F" stroke-width="2"/>
<path d="M17.6387 20.714H28.9925L22.5479 29.2216L17.6387 35.4602V20.714Z" fill="#C4A27F"/>
<path d="M28.5779 20.714H17.224L23.6687 29.2216L28.5779 35.4602V20.714Z" fill="#C4A27F"/>
</g>
</svg>
