<svg width="45" height="51" viewBox="0 0 45 51" fill="none" xmlns="http://www.w3.org/2000/svg">
<path d="M43.2431 50.3995V22.5722C43.2431 10.9294 33.8047 1.49097 22.1618 1.49097V1.49097C10.519 1.49097 1.08057 10.9294 1.08057 22.5722V50.3995" stroke="#C4A27F" stroke-width="2"/>
<line x1="1.92383" y1="49.3997" x2="42.3999" y2="49.3997" stroke="#C4A27F" stroke-width="2"/>
<path d="M1.08057 49.185V42.2583C1.08057 39.8015 3.07222 37.8098 5.52905 37.8098V37.8098C7.98588 37.8098 9.97754 39.8015 9.97754 42.2583V49.185" stroke="#C4A27F" stroke-width="2"/>
<path d="M34.3462 49.185V42.2583C34.3462 39.8015 36.3378 37.8098 38.7947 37.8098V37.8098C41.2515 37.8098 43.2432 39.8015 43.2432 42.2583V49.185" stroke="#C4A27F" stroke-width="2"/>
<line x1="1.08057" y1="24.9453" x2="43.2432" y2="24.9453" stroke="#C4A27F" stroke-width="2"/>
<path d="M14.1804 49.1859V38.3794C14.1804 33.9715 17.7537 30.3982 22.1616 30.3982V30.3982C26.5695 30.3982 30.1428 33.9715 30.1428 38.3794V49.1859" stroke="#C4A27F" stroke-width="2"/>
<path d="M13.8077 43.5553V49.8915H30.3044V43.0415V38.1324L28.9344 34.3079L25.5095 30.6548L19.9154 31.1114L16.833 32.9951L14.6068 35.9064L13.8077 43.5553Z" fill="#C4A27F"/>
<path d="M22.0375 24.6868L22.0375 16.1511" stroke="#C4A27F" stroke-width="2"/>
<rect x="14.2044" y="9.59229" width="15.9149" height="7.75284" fill="#C4A27F"/>
</svg>
