<svg width="46" height="50" viewBox="0 0 46 50" fill="none" xmlns="http://www.w3.org/2000/svg">
<rect x="1.73187" y="1.54077" width="43.0058" height="47.0498" stroke="#C4A27F" stroke-width="2.10813" stroke-linecap="round"/>
<path d="M25.3428 33.8874L44.3159 1.96074" stroke="#C4A27F" stroke-width="2.10813" stroke-linecap="round"/>
<path d="M22.813 38.5085L44.7376 22.9655" stroke="#C4A27F" stroke-width="2.10813" stroke-linecap="round"/>
<path d="M21.1266 33.8874L2.1535 1.96074" stroke="#C4A27F" stroke-width="2.10813" stroke-linecap="round"/>
<path d="M23.6564 38.5085L1.73188 22.9655" stroke="#C4A27F" stroke-width="2.10813" stroke-linecap="round"/>
<line x1="28.7159" y1="36.6144" x2="44.7377" y2="36.6144" stroke="#C4A27F" stroke-width="2.10813"/>
<line x1="1.73187" y1="36.6144" x2="17.7536" y2="36.6144" stroke="#C4A27F" stroke-width="2.10813"/>
<path d="M14.6023 47.6331V37.3044C14.6023 34.8774 15.6429 32.5373 17.4273 30.8922V30.8922C20.7622 27.8175 25.9691 27.8221 29.2379 30.9669V30.9669C30.9181 32.5833 31.8676 34.8143 31.8676 37.1458V47.6331" stroke="#C4A27F" stroke-width="2.10813" stroke-linecap="round"/>
<path d="M32.2349 47.6328H14.2349L14.6022 35.617L17.1736 31.3761L20.1124 28.5488H23.7859L26.3573 29.609L30.3981 33.1431L32.2349 37.7374V47.6328Z" fill="#C4A27F"/>
<path d="M23.2348 31.7871L23.2348 2.38097" stroke="#C4A27F" stroke-width="2.10813" stroke-linecap="round"/>
</svg>
