<svg width="64" height="73" viewBox="0 0 64 73" fill="none" xmlns="http://www.w3.org/2000/svg">
<path fill-rule="evenodd" clip-rule="evenodd" d="M30.7255 41.5885C30.7148 41.5629 30.7038 41.5373 30.6925 41.5118L27.8064 34.9831L29.6336 30.8498C30.0863 29.8258 31.0533 29.2279 32.0591 29.2385C33.0648 29.2279 34.0319 29.8258 34.4845 30.8498L36.895 36.3025L39.3292 30.7964C39.9465 29.3998 41.5207 28.7957 42.8451 29.4472C44.1696 30.0986 44.7428 31.7589 44.1254 33.1555L39.3508 43.9558C39.0944 44.536 38.6727 44.9795 38.1726 45.2528C38.1099 45.2906 38.0453 45.3258 37.9788 45.3585C36.6544 46.0099 35.0802 45.4059 34.4627 44.0093L32.0591 38.5718L30.7255 41.5885Z" fill="#C4A27F"/>
<path fill-rule="evenodd" clip-rule="evenodd" d="M24.5921 30.8502C23.9748 29.4536 22.4007 28.8495 21.0763 29.5011C19.7518 30.1526 19.1786 31.8129 19.796 33.2096L24.5701 44.01C25.1874 45.4067 26.7615 46.0107 28.0859 45.3593C29.4103 44.7078 29.9835 43.0473 29.3662 41.6507L24.5921 30.8502Z" fill="#C4A27F"/>
<path d="M62.1334 72.4033V32.5757C62.1334 15.912 48.6248 2.40332 31.961 2.40332V2.40332C15.2972 2.40332 1.78857 15.912 1.78857 32.5757V72.4033" stroke="#C4A27F" stroke-width="3"/>
<line x1="2.99533" y1="70.9034" x2="60.9264" y2="70.9034" stroke="#C4A27F" stroke-width="3"/>
<path fill-rule="evenodd" clip-rule="evenodd" d="M33.0105 10.9094C32.411 10.38 31.511 10.38 30.9115 10.9094L25.8058 15.419C25.4769 15.7094 25.0424 15.8506 24.6057 15.8089L17.8244 15.1617C17.0282 15.0857 16.3 15.6147 16.1263 16.3954L14.6463 23.0448C14.551 23.4731 14.2824 23.8427 13.9046 24.0657L8.03797 27.528C7.34916 27.9346 7.07105 28.7905 7.38936 29.5243L10.1004 35.7736C10.2751 36.1761 10.2751 36.633 10.1004 37.0355L7.38936 43.2849C7.07105 44.0187 7.34916 44.8746 8.03797 45.2811L13.9046 48.7434C14.2824 48.9664 14.551 49.336 14.6463 49.7643L16.1263 56.4137C16.3 57.1944 17.0282 57.7234 17.8244 57.6474L24.6057 57.0002C25.0424 56.9585 25.4769 57.0997 25.8058 57.3901L30.9115 61.8997C31.511 62.4292 32.411 62.4292 33.0105 61.8997L38.1162 57.3901C38.4451 57.0997 38.8796 56.9585 39.3163 57.0002L46.0976 57.6474C46.8938 57.7234 47.6219 57.1944 47.7957 56.4137L49.2757 49.7643C49.371 49.336 49.6395 48.9664 50.0174 48.7434L55.884 45.2811C56.5728 44.8746 56.8509 44.0187 56.5326 43.2849L53.8215 37.0355C53.6469 36.633 53.6469 36.1761 53.8215 35.7736L56.5326 29.5242C56.8509 28.7905 56.5728 27.9346 55.884 27.528L50.0174 24.0657C49.6395 23.8427 49.371 23.4731 49.2757 23.0448L47.7957 16.3954C47.6219 15.6147 46.8938 15.0857 46.0976 15.1617L39.3163 15.8089C38.8796 15.8506 38.4451 15.7094 38.1162 15.419L33.0105 10.9094ZM31.6968 54.9C42.0574 54.9 50.4564 46.501 50.4564 36.1404C50.4564 25.7797 42.0574 17.3807 31.6968 17.3807C21.3361 17.3807 12.9371 25.7797 12.9371 36.1404C12.9371 46.501 21.3361 54.9 31.6968 54.9Z" fill="#C4A27F"/>
<path d="M20.7853 56.3459V70.7618H43.1366V56.3459" stroke="#C4A27F" stroke-width="3"/>
</svg>
